<svg width="339" height="87" viewBox="0 0 339 87" fill="none" xmlns="http://www.w3.org/2000/svg">
<g clip-path="url(#clip0_445_29)">
<path d="M0 7.69995H21.6V15.6H15V50.0999H6.6V15.6H0V7.69995Z" fill="#6BAB44"/>
<path d="M25.3999 7.69995H42.2999V15.6H33.7999V24.7999H41.2999V32.7H33.7999V42.2H42.3999V50.0999H25.3999V7.69995Z" fill="#6BAB44"/>
<path d="M68.6 7.99995V15.7C67.5 15.4 66.4 15.2 65.5 15.2C62 15.2 59.4 16.6 57.5 19.4C55.8 21.8 55 24.9 55 28.5C55 32.1 55.8 35.2 57.5 37.9C59.5 41 62.1 42.5999 65.5 42.5999C66.3 42.5999 67.4 42.4 68.7 42V49.9C67.5 50.4 66.2 50.5999 64.8 50.5999C59 50.5999 54.4 48.3 50.8 43.7C47.6 39.5 46 34.5 46 28.5C46 22.9 47.6 18 50.9 13.9C54.5 9.39995 59 7.19995 64.4 7.19995C65.8 7.19995 67.2 7.39995 68.6 7.99995Z" fill="#6BAB44"/>
<path d="M72.8999 7.69995H81.2999V24.2999H89.7999V7.69995H98.1999V50.0999H89.7999V32.2H81.2999V50.0999H72.8999V7.69995Z" fill="#6BAB44"/>
<path d="M106.2 7.69995H117.2L121.3 32.7H121.4L124.8 7.69995H136L140.5 50.0999H131.9L129.9 19.6H129.7L128.4 30L124.8 50.0999H118.3L114.2 29.7999L112.8 20.3V19.6H112.7L111.5 50.0999H102.5L106.2 7.69995Z" fill="#0868A0"/>
<path d="M152.1 7.69995H160.9L171.1 50.0999H162.2L160.6 43H152.1L150.6 50.0999H142.3L152.1 7.69995ZM159.3 36.2999L157.2 25L156.2 18.6H156.1L155.2 25L153.4 36.2999H159.3Z" fill="#0868A0"/>
<path d="M188 26.5H201.7V29.8C201.7 35.5 200.9 40.2 199.2 43.6C196.9 48.4 193.2 50.7 188.1 50.7C182.9 50.7 179 48.3 176.2 43.4C174 39.5 172.9 34.7 172.9 29.1C172.9 23.1 173.9 18.2 176 14.4C178.6 9.5 182.6 7 188 7C191.1 7 193.8 7.9 196 9.8C198.1 11.6 199.6 14 200.5 17.1L192.3 20.3C191.7 16.7 190.2 14.9 188 14.8C185.5 14.7 183.8 16.5 182.8 20.3C182.1 22.7 181.8 25.6 181.8 29C181.8 38.4 184 43.1 188.3 43.1C190.2 43.1 191.5 42 192.4 39.8C193 38.3 193.2 36.5 193.2 34.4H188V26.5Z" fill="#0868A0"/>
<path d="M206.1 7.69995H214.1L224.6 33.2999L224.7 33.2C224.2 31.4 224 29.2999 224 26.7999V7.69995H232.4V50.0999H224.5L214.1 24.5L214 24.6L214.5 28.9V30.6V50.0999H206.1V7.69995Z" fill="#0868A0"/>
<path d="M245.7 7.69995H254.5L264.7 50.0999H255.8L254.2 43H245.7L244.2 50.0999H235.9L245.7 7.69995ZM253 36.2999L250.8 25L249.8 18.6H249.7L248.8 25L247 36.2999H253Z" fill="#0868A0"/>
<path d="M266 7.69995H287.6V15.6H280.9V50.0999H272.5V15.6H266V7.69995Z" fill="#0868A0"/>
<path d="M291.4 7.69995H308.3V15.6H299.8V24.7999H307.2V32.7H299.8V42.2H308.4V50.0999H291.4V7.69995Z" fill="#0868A0"/>
<path d="M3 82.1V66H8.5C9.7 66 10.7 66.1 11.4 66.2C12.3 66.4 13.1 66.8 13.7 67.4C14.6 68.1 15.2 69 15.6 70.1C16 71.2 16.2 72.5 16.2 73.9C16.2 75.1 16.1 76.2 15.8 77.2C15.5 78.1 15.2 78.9 14.7 79.5C14.2 80.1 13.8 80.6 13.2 81C12.7 81.4 12 81.6 11.3 81.8C10.6 82 9.7 82.1 8.7 82.1H3ZM5.1 80.3H8.5C9.6 80.3 10.4 80.2 11 80C11.6 79.8 12.1 79.5 12.4 79.2C12.9 78.7 13.3 78 13.6 77.2C13.9 76.3 14 75.3 14 74.1C14 72.4 13.7 71.1 13.2 70.2C12.7 69.3 12 68.7 11.2 68.4C10.6 68.2 9.7 68.1 8.5 68.1H5.1V80.3Z" fill="#161616"/>
<path d="M26.7 68.3V66H28.7V68.3H26.7ZM26.7 82.1V70.5H28.7V82.2L26.7 82.1Z" fill="#161616"/>
<path d="M39.0999 83.1L41 83.4C41.1 84 41.3 84.4 41.7 84.7C42.2 85.1 42.9 85.2 43.7 85.2C44.6 85.2 45.2999 85 45.7999 84.7C46.2999 84.3 46.5999 83.8 46.7999 83.2C46.8999 82.8 46.9 82 46.9 80.7C46 81.7 45 82.2 43.7 82.2C42.1 82.2 40.9 81.6 40 80.5C39.1 79.3 38.7 78 38.7 76.3C38.7 75.2 38.8999 74.2 39.2999 73.2C39.6999 72.3 40.3 71.5 41 71C41.8 70.5 42.7 70.2 43.7 70.2C45.1 70.2 46.1999 70.8 47.0999 71.9V70.5H48.9V80.6C48.9 82.4 48.7 83.7 48.4 84.5C48 85.3 47.3999 85.9 46.5999 86.3C45.7999 86.7 44.8 87 43.7 87C42.3 87 41.1999 86.7 40.2999 86.1C39.4999 85.3 38.9999 84.4 39.0999 83.1ZM40.7 76.1C40.7 77.6 40.9999 78.7 41.5999 79.4C42.1999 80.1 43 80.5 43.9 80.5C44.8 80.5 45.6 80.2 46.2 79.5C46.8 78.8 47.0999 77.7 47.0999 76.2C47.0999 74.8 46.8 73.7 46.2 73C45.6 72.3 44.8 71.9 43.9 71.9C43 71.9 42.3 72.3 41.7 73C41 73.6 40.7 74.7 40.7 76.1Z" fill="#161616"/>
<path d="M59.7 68.3V66H61.7V68.3H59.7ZM59.7 82.1V70.5H61.7V82.2L59.7 82.1Z" fill="#161616"/>
<path d="M76.7 80.3999L77 82.0999C76.4 82.1999 76 82.2999 75.5 82.2999C74.8 82.2999 74.2 82.1999 73.8 81.9999C73.4 81.7999 73.1 81.4999 73 81.0999C72.8 80.6999 72.8 79.8999 72.8 78.7999V71.9999H71.3V70.4999H72.8V67.5999L74.8 66.3999V70.4999H76.8V71.9999H74.8V78.7999C74.8 79.3999 74.8 79.6999 74.9 79.8999C75 80.0999 75.1 80.1999 75.2 80.2999C75.4 80.3999 75.6 80.3999 75.9 80.3999C76 80.4999 76.3 80.3999 76.7 80.3999Z" fill="#161616"/>
<path d="M94 80.7C93.3 81.3 92.6 81.8 91.9 82C91.2 82.3 90.5 82.4 89.7 82.4C88.4 82.4 87.4 82.1 86.8 81.5C86.1 80.9 85.8 80.1 85.8 79.1C85.8 78.5 85.9 78 86.2 77.5C86.5 77 86.8 76.7 87.2 76.4C87.6 76.1 88.1 75.9 88.6 75.7C89 75.6 89.6 75.5 90.4 75.4C92 75.2 93.2 75 93.9 74.7C93.9 74.4 93.9 74.3 93.9 74.2C93.9 73.4 93.7 72.8 93.3 72.5C92.8 72.1 92 71.8 91.1 71.8C90.2 71.8 89.5 72 89 72.3C88.6 72.6 88.2 73.2 88 74L86.1 73.7C86.3 72.9 86.6 72.2 87 71.7C87.4 71.2 88 70.8 88.7 70.5C89.5 70.2 90.3 70.1 91.3 70.1C92.3 70.1 93.1 70.2 93.7 70.5C94.3 70.7 94.8 71 95.1 71.4C95.4 71.8 95.6 72.2 95.7 72.8C95.8 73.1 95.8 73.7 95.8 74.6V77.2C95.8 79 95.8 80.2 95.9 80.7C96 81.2 96.1 81.7 96.4 82.1H94.3C94.2 81.7 94.1 81.2 94 80.7ZM93.8 76.3C93.1 76.6 92 76.8 90.6 77C89.8 77.1 89.2 77.2 88.9 77.4C88.6 77.6 88.3 77.8 88.1 78C87.9 78.3 87.8 78.6 87.8 78.9C87.8 79.4 88 79.9 88.4 80.2C88.8 80.6 89.4 80.7 90.1 80.7C90.9 80.7 91.5 80.5 92.1 80.2C92.7 79.9 93.1 79.4 93.4 78.8C93.6 78.4 93.7 77.7 93.7 76.8L93.8 76.3Z" fill="#161616"/>
<path d="M106.6 82.1V66H108.6V82.1H106.6Z" fill="#161616"/>
<path d="M133.7 82.1V66H145.2V67.9H135.8V72.9H144.6V74.8H135.8V80.3H145.6V82.1H133.7Z" fill="#161616"/>
<path d="M154.7 82.1L158.9 76.1L155 70.5H157.4L159.2 73.3C159.5 73.8 159.8 74.2 160 74.6C160.3 74.1 160.6 73.7 160.9 73.3L162.8 70.5H165.2L161.2 76.1L165.4 82.1H163L160.6 78.5L160.1 77.6L157 82.1H154.7Z" fill="#161616"/>
<path d="M182.6 77.9L184.5 78.2C184.3 79.5 183.8 80.6 182.9 81.3C182 82.1 181 82.4 179.7 82.4C178.1 82.4 176.8 81.9 175.9 80.8C174.9 79.8 174.5 78.3 174.5 76.3C174.5 75 174.7 73.9 175.1 73C175.5 72.1 176.1 71.4 177 70.9C177.8 70.4 178.8 70.2 179.8 70.2C181.1 70.2 182.1 70.5 182.9 71.2C183.7 71.8 184.2 72.8 184.4 73.9L182.5 74.2C182.3 73.4 182 72.8 181.5 72.4C181 72 180.5 71.8 179.8 71.8C178.8 71.8 178 72.2 177.4 72.9C176.8 73.6 176.5 74.7 176.5 76.3C176.5 77.9 176.8 79 177.4 79.7C178 80.4 178.8 80.8 179.7 80.8C180.5 80.8 181.1 80.6 181.6 80.1C182.2 79.6 182.5 78.9 182.6 77.9Z" fill="#161616"/>
<path d="M201.9 78.3999L203.9 78.6999C203.6 79.8999 203 80.7999 202.1 81.4999C201.2 82.1999 200.1 82.4999 198.8 82.4999C197.1 82.4999 195.8 81.9999 194.8 80.8999C193.8 79.8999 193.3 78.3999 193.3 76.4999C193.3 74.4999 193.8 72.9999 194.8 71.8999C195.8 70.7999 197.1 70.2999 198.7 70.2999C200.2 70.2999 201.5 70.7999 202.5 71.8999C203.5 72.9999 204 74.4999 204 76.3999C204 76.4999 204 76.6999 204 76.8999H195.3C195.4 78.1999 195.7 79.1999 196.4 79.7999C197 80.4999 197.9 80.7999 198.8 80.7999C199.5 80.7999 200.1 80.5999 200.6 80.1999C201.2 79.7999 201.6 79.1999 201.9 78.3999ZM195.5 75.1999H202C201.9 74.1999 201.7 73.4999 201.3 72.9999C200.7 72.1999 199.9 71.8999 198.9 71.8999C198 71.8999 197.2 72.1999 196.6 72.7999C195.9 73.3999 195.6 74.1999 195.5 75.1999Z" fill="#161616"/>
<path d="M214.2 82.1V66H216.2V82.1H214.2Z" fill="#161616"/>
<path d="M227 82.1V66H228.9V82.1H227Z" fill="#161616"/>
<path d="M247.7 78.3999L249.7 78.6999C249.4 79.8999 248.8 80.7999 247.9 81.4999C247 82.1999 245.9 82.4999 244.6 82.4999C242.9 82.4999 241.6 81.9999 240.6 80.8999C239.6 79.8999 239.1 78.3999 239.1 76.4999C239.1 74.4999 239.6 72.9999 240.6 71.8999C241.6 70.7999 242.9 70.2999 244.5 70.2999C246 70.2999 247.3 70.7999 248.3 71.8999C249.3 72.9999 249.8 74.4999 249.8 76.3999C249.8 76.4999 249.8 76.6999 249.8 76.8999H241.2C241.3 78.1999 241.6 79.1999 242.3 79.7999C242.9 80.4999 243.8 80.7999 244.7 80.7999C245.4 80.7999 246 80.5999 246.5 80.1999C247 79.7999 247.4 79.1999 247.7 78.3999ZM241.2 75.1999H247.7C247.6 74.1999 247.4 73.4999 247 72.9999C246.4 72.1999 245.6 71.8999 244.6 71.8999C243.7 71.8999 242.9 72.1999 242.3 72.7999C241.6 73.3999 241.3 74.1999 241.2 75.1999Z" fill="#161616"/>
<path d="M260 82.0999V70.4999H261.8V72.1999C262.7 70.8999 263.9 70.2999 265.5 70.2999C266.2 70.2999 266.8 70.3999 267.4 70.6999C268 70.9999 268.4 71.2999 268.7 71.6999C269 72.0999 269.2 72.5999 269.3 73.1999C269.4 73.5999 269.4 74.1999 269.4 75.0999V82.2999H267.4V75.1999C267.4 74.3999 267.3 73.7999 267.2 73.3999C267 72.9999 266.8 72.6999 266.4 72.3999C266 72.1999 265.6 71.9999 265 71.9999C264.2 71.9999 263.4 72.2999 262.8 72.7999C262.2 73.2999 261.9 74.2999 261.9 75.7999V82.1999L260 82.0999Z" fill="#161616"/>
<path d="M287.8 77.9L289.7 78.2C289.5 79.5 289 80.6 288.1 81.3C287.2 82.1 286.2 82.4 284.9 82.4C283.3 82.4 282 81.9 281.1 80.8C280.1 79.8 279.7 78.3 279.7 76.3C279.7 75 279.9 73.9 280.3 73C280.7 72.1 281.3 71.4 282.2 70.9C283 70.4 284 70.2 285 70.2C286.3 70.2 287.3 70.5 288.1 71.2C288.9 71.8 289.4 72.8 289.6 73.9L287.7 74.2C287.5 73.4 287.2 72.8 286.7 72.4C286.2 72 285.7 71.8 285 71.8C284 71.8 283.2 72.2 282.6 72.9C282 73.6 281.7 74.7 281.7 76.3C281.7 77.9 282 79 282.6 79.7C283.2 80.4 284 80.8 284.9 80.8C285.7 80.8 286.3 80.6 286.8 80.1C287.3 79.6 287.7 78.9 287.8 77.9Z" fill="#161616"/>
<path d="M307.1 78.3999L309.1 78.6999C308.8 79.8999 308.2 80.7999 307.3 81.4999C306.4 82.1999 305.3 82.4999 304 82.4999C302.3 82.4999 301 81.9999 300 80.8999C299 79.8999 298.5 78.3999 298.5 76.4999C298.5 74.4999 299 72.9999 300 71.8999C301 70.7999 302.3 70.2999 303.9 70.2999C305.5 70.2999 306.7 70.7999 307.7 71.8999C308.7 72.9999 309.2 74.4999 309.2 76.3999C309.2 76.4999 309.2 76.6999 309.2 76.8999H300.5C300.6 78.1999 300.9 79.1999 301.6 79.7999C302.2 80.4999 303.1 80.7999 304 80.7999C304.7 80.7999 305.3 80.5999 305.8 80.1999C306.4 79.7999 306.8 79.1999 307.1 78.3999ZM300.6 75.1999H307.1C307 74.1999 306.8 73.4999 306.4 72.9999C305.8 72.1999 305 71.8999 304 71.8999C303.1 71.8999 302.3 72.1999 301.7 72.7999C301.1 73.3999 300.7 74.1999 300.6 75.1999Z" fill="#161616"/>
<path fill-rule="evenodd" clip-rule="evenodd" d="M1.69995 58.9H308.6V59.4H1.69995V58.9Z" stroke="#171717" stroke-miterlimit="10"/>
<path d="M320.797 19.8346V9.01137H326.282C326.722 9.01137 327.201 9.13847 327.719 9.39268C328.237 9.6371 328.677 10.0184 329.039 10.5366C329.411 11.045 329.596 11.6903 329.596 12.4725C329.596 13.2644 329.406 13.939 329.025 14.4963C328.643 15.0438 328.179 15.4594 327.631 15.7429C327.094 16.0264 326.585 16.1682 326.106 16.1682H322.146V14.4083H325.373C325.695 14.4083 326.042 14.247 326.414 13.9244C326.795 13.6017 326.986 13.1178 326.986 12.4725C326.986 11.8076 326.795 11.3579 326.414 11.1232C326.042 10.8886 325.715 10.7712 325.431 10.7712H323.173V19.8346H320.797ZM327.338 14.731L330.036 19.8346H327.426L324.786 14.731H327.338ZM324.903 26.2875C323.28 26.2875 321.76 25.9844 320.342 25.3782C318.925 24.7721 317.678 23.9312 316.603 22.8558C315.527 21.7803 314.686 20.5337 314.08 19.116C313.474 17.6983 313.171 16.178 313.171 14.555C313.171 12.932 313.474 11.4116 314.08 9.99397C314.686 8.57629 315.527 7.32971 316.603 6.25423C317.678 5.17874 318.925 4.33791 320.342 3.73173C321.76 3.12555 323.28 2.82246 324.903 2.82246C326.526 2.82246 328.047 3.12555 329.464 3.73173C330.882 4.33791 332.129 5.17874 333.204 6.25423C334.28 7.32971 335.121 8.57629 335.727 9.99397C336.333 11.4116 336.636 12.932 336.636 14.555C336.636 16.178 336.333 17.6983 335.727 19.116C335.121 20.5337 334.28 21.7803 333.204 22.8558C332.129 23.9312 330.882 24.7721 329.464 25.3782C328.047 25.9844 326.526 26.2875 324.903 26.2875ZM324.903 23.4717C326.546 23.4717 328.042 23.0708 329.391 22.2691C330.74 21.4674 331.816 20.3919 332.618 19.0427C333.419 17.6934 333.82 16.1975 333.82 14.555C333.82 12.9124 333.419 11.4165 332.618 10.0673C331.816 8.71805 330.74 7.64257 329.391 6.84085C328.042 6.03913 326.546 5.63827 324.903 5.63827C323.261 5.63827 321.765 6.03913 320.416 6.84085C319.067 7.64257 317.991 8.71805 317.189 10.0673C316.388 11.4165 315.987 12.9124 315.987 14.555C315.987 16.1975 316.388 17.6934 317.189 19.0427C317.991 20.3919 319.067 21.4674 320.416 22.2691C321.765 23.0708 323.261 23.4717 324.903 23.4717Z" fill="#161616"/>
</g>
<defs>
<clipPath id="clip0_445_29">
<rect width="339" height="87" fill="white"/>
</clipPath>
</defs>
</svg>
